Coordinates
version=1
nRows=5
nColumns=40
inDegrees=yes

Units are S.I. units (second, meters, Newtons, ...)
Angles are in degrees.

endheader
time	pelvis_tilt	pelvis_list	pelvis_rotation	pelvis_tx	pelvis_ty	pelvis_tz	hip_flexion_r	hip_adduction_r	hip_rotation_r	knee_angle_r	knee_angle_r_beta	ankle_angle_r	subtalar_angle_r	mtp_angle_r	hip_flexion_l	hip_adduction_l	hip_rotation_l	knee_angle_l	knee_angle_l_beta	ankle_angle_l	subtalar_angle_l	mtp_angle_l	lumbar_extension	lumbar_bending	lumbar_rotation	arm_flex_r	arm_add_r	arm_rot_r	elbow_flex_r	pro_sup_r	wrist_flex_r	wrist_dev_r	arm_flex_l	arm_add_l	arm_rot_l	elbow_flex_l	pro_sup_l	wrist_flex_l	wrist_dev_l
     44.95114286	     -2.97440897	     -3.06203979	     -2.03766987	      1.07993219	      0.93639448	      0.43086911	     37.37729739	     -4.16805862	     -4.53343213	     61.58931363	     61.58931363	      0.93234647	    -18.17852746	      6.51723118	      9.46708105	     -3.74182495	    -10.98735296	     16.92423204	     16.92423204	     11.78912275	    -14.49909007	     -3.98802569	    -10.15823318	      5.44102325	      1.74695494	      9.22212789	    -12.47699895	     -5.33281291	     44.79823746	     46.52585126	      0.00000000	      0.00000000	     17.59276047	    -16.20321750	      7.55836536	     47.66960469	     45.93546075	      0.00000000	      0.00000000
     44.96228571	     -2.87634523	     -3.10625761	     -2.26201628	      1.07963442	      0.93672466	      0.43084530	     37.40925358	     -4.07179256	     -4.68110270	     58.25106285	     58.25106285	      1.25437999	    -18.03748776	      6.69461035	      8.31587346	     -3.68454173	    -11.21866592	     16.17065538	     16.17065538	     12.09978865	    -14.22990366	     -4.00897821	    -10.37273389	      5.67370277	      2.41108494	      7.33241085	    -13.08324284	     -5.39607830	     42.37523301	     46.59694066	      0.00000000	      0.00000000	     19.33364330	    -16.23055900	      7.16459192	     49.42355633	     46.01086317	      0.00000000	      0.00000000
     44.97342857	     -2.80968337	     -3.13491285	     -2.46472939	      1.07954573	      0.93684558	      0.43092927	     37.28387499	     -3.96181142	     -4.86132984	     54.62243563	     54.62243563	      1.53661495	    -17.70637205	      6.69100067	      7.19357446	     -3.61627829	    -11.45536715	     15.42204649	     15.42204649	     12.38680619	    -13.93662855	     -4.08902215	    -10.52082843	      5.86521950	      2.99926052	      5.65190213	    -13.52252590	     -5.52446898	     39.47738446	     46.69301010	      0.00000000	      0.00000000	     20.91971411	    -16.29953690	      6.81102002	     51.36629049	     46.08159591	      0.00000000	      0.00000000
     44.98457143	     -2.68559441	     -3.00156797	     -2.75224879	      1.07959877	      0.93681789	      0.43118629	     36.96987353	     -3.91667184	     -4.86364847	     50.79235488	     50.79235488	      1.69430913	    -17.13687245	      6.08334581	      5.97069039	     -3.36517386	    -11.81481196	     14.62542272	     14.62542272	     12.64160297	    -13.64187121	     -4.28163864	    -10.72895415	      5.81735985	      3.64100641	      4.48172614	    -13.80079366	     -5.81761711	     35.30203496	     46.84967078	      0.00000000	      0.00000000	     22.30529947	    -16.46073969	      6.40741162	     54.03737343	     46.16548546	      0.00000000	      0.00000000
     44.99571429	     -2.71778132	     -2.89723044	     -2.90098063	      1.07972822	      0.93642793	      0.43144318	     36.50282962	     -3.93246140	     -5.17454864	     46.47699361	     46.47699361	      0.85284568	    -16.48522573	      2.64399309	      5.00368669	     -3.15631173	    -11.97684941	     13.94098079	     13.94098079	     12.67850253	    -13.53740659	     -4.86835792	    -10.65219131	      5.80865119	      2.31894028	      6.08963471	    -13.02813400	     -7.28678420	     26.88862311	     47.24605079	      0.00000000	      0.00000000	     21.80040383	    -18.07708761	      5.19390861	     58.57000768	     46.34608559	      0.00000000	      0.00000000
